<?xml version="1.0" standalone="no"?><!DOCTYPE svg PUBLIC "-//W3C//DTD SVG 1.1//EN" "http://www.w3.org/Graphics/SVG/1.1/DTD/svg11.dtd"><svg t="1609850343941" class="icon" viewBox="0 0 1024 1024" version="1.1" xmlns="http://www.w3.org/2000/svg" p-id="6947" width="16" height="16" xmlns:xlink="http://www.w3.org/1999/xlink"><defs><style type="text/css"></style></defs><path d="M0 0h1024v1024H0z" fill="#16a7e0" fill-opacity="0" p-id="6948"></path><path d="M409.6 332.8a281.6 281.6 0 1 0 0 563.2 281.6 281.6 0 0 0 0-563.2z m0 51.2a230.4 230.4 0 1 1 0 460.8 230.4 230.4 0 0 1 0-460.8z" fill="#16a7e0" p-id="6949"></path><path d="M852.2752 135.4752a25.6 25.6 0 0 1 39.168 32.6656l-2.9184 3.584-268.8 268.8a25.6 25.6 0 0 1-39.168-32.6656l2.9184-3.584 268.8-268.8z" fill="#16a7e0" p-id="6950"></path><path d="M870.4 128a25.6 25.6 0 0 1 25.1904 20.992L896 153.6v307.2a25.6 25.6 0 0 1-50.7904 4.608L844.8 460.8V179.2H563.2a25.6 25.6 0 0 1-25.1904-20.992L537.6 153.6a25.6 25.6 0 0 1 20.992-25.1904L563.2 128h307.2z" fill="#16a7e0" p-id="6951"></path></svg>