<?xml version="1.0" standalone="no"?><!DOCTYPE svg PUBLIC "-//W3C//DTD SVG 1.1//EN" "http://www.w3.org/Graphics/SVG/1.1/DTD/svg11.dtd"><svg t="1609852435285" class="icon" viewBox="0 0 1024 1024" version="1.1" xmlns="http://www.w3.org/2000/svg" p-id="8606" width="16" height="16" xmlns:xlink="http://www.w3.org/1999/xlink"><defs><style type="text/css"></style></defs><path d="M904.100468 113.973898C833.245014 41.101207 735.156858 0 633.286383 0c-101.870475 0-200.967249 41.101207-271.822704 113.973898C233.369121 244.842157 212.69244 451.356809 312.797833 604.414676l2.773701 4.790938-70.09899 71.107609-115.738981-116.747599c-13.112041-14.12066-31.771485-21.433145-50.430928-21.433144s-37.318887 8.321103-50.430929 21.433144c-27.989165 28.997784-27.989165 74.637774 0 102.879094L143.854223 783.192317 28.619552 899.687762c-27.989165 28.997784-27.989165 74.637774 0 102.879093 13.112041 14.12066 31.771485 21.433145 50.430928 21.433145 19.668062 0 37.318887-7.564639 50.430929-21.433145l115.73898-116.747599 115.738981 116.747599c13.112041 14.12066 31.771485 21.433145 50.430928 21.433145s37.318887-8.321103 50.430928-21.433145c27.989165-28.997784 27.989165-74.637774 0-102.879093l-115.73898-116.747599 70.09899-71.107609 4.790938 2.773701C484.515144 756.71608 557.387836 779.157843 633.034228 779.157843c101.870475 0 198.193548-40.092588 271.06624-113.973898 149.527703-152.301404 149.527703-398.908643 0-551.210047z m-86.741197 459.677912C769.197735 622.821965 703.637528 650.81113 634.799311 651.31544c-70.09899 0.504309-136.163507-26.224083-185.837971-75.898548-48.413691-48.413691-75.142083-112.713125-76.150702-180.794878-0.756464-68.838217 25.971928-135.154888 74.133464-184.072888 48.161537-49.170155 113.721743-77.15932 182.559961-77.66363 69.594681-1.008619 136.667816 26.476237 185.837971 75.898547 48.161537 47.909382 75.394238 112.965279 75.898547 180.794878 1.260773 68.838217-25.467619 134.902733-73.88131 184.072889z" fill="#f94691" p-id="8607"></path></svg>